<svg width="543" height="299" viewBox="0 0 543 299" fill="none" xmlns="http://www.w3.org/2000/svg">
<line x1="37.4805" y1="117.093" x2="533.51" y2="117.093" stroke="#E4E4E4"/>
<line x1="37.4805" y1="169.353" x2="533.51" y2="169.353" stroke="#E4E4E4"/>
<line x1="37.4805" y1="221.612" x2="533.51" y2="221.612" stroke="#E4E4E4"/>
<line x1="37.4805" y1="273.872" x2="533.51" y2="273.872" stroke="#E4E4E4"/>
<path d="M19 11L44.467 27.274H76.5366L110.493 42.6438L136.276 67.7111L164.584 92.4815L175.907 102.911L188.039 115.622L198.554 128.333L213.304 148.425L236.885 170.123L267.068 190.918L294.421 211.712L319.888 222.562L335.923 230.699L375.681 241.104L437.791 250.881H477.407H510.419L534 246.068V272.393L19 275V11Z" fill="url(#paint0_linear_234_9)" fill-opacity="0.8"/>
<path d="M42.9044 27.992C42.9044 27.992 70.4951 21.7759 89.8143 31.3549C108.167 40.4549 116.005 48.0583 130.63 60.5683C148.792 76.103 158.686 86.6584 176.651 102.35C196.19 119.416 198.819 136.744 218.758 153.489C244.03 174.714 256.559 184.64 284.344 203.728C310.722 221.849 329.685 228.409 363.184 238.954C395.984 249.279 417.576 248.514 454.92 251.849C491.933 255.154 522.426 245.508 522.426 245.508" stroke="url(#paint1_linear_234_9)" stroke-width="2"/>
<circle cx="504.047" cy="260.908" r="36.0472" fill="#EC445A" stroke="white" stroke-width="4"/>
<circle cx="43.3675" cy="25.3675" r="23.3675" fill="#FF2C6B" stroke="white" stroke-width="4"/>
<path d="M478.894 254.32H476.654V260H475.054V254.32H472.824V253H478.894V254.32ZM482.844 254.54C483.344 254.54 483.797 254.657 484.204 254.89C484.617 255.117 484.941 255.44 485.174 255.86C485.407 256.273 485.524 256.757 485.524 257.31C485.524 257.863 485.407 258.35 485.174 258.77C484.941 259.183 484.617 259.507 484.204 259.74C483.797 259.967 483.344 260.08 482.844 260.08C482.157 260.08 481.617 259.863 481.224 259.43V261.94H479.664V254.62H481.154V255.24C481.541 254.773 482.104 254.54 482.844 254.54ZM482.574 258.8C482.974 258.8 483.301 258.667 483.554 258.4C483.814 258.127 483.944 257.763 483.944 257.31C483.944 256.857 483.814 256.497 483.554 256.23C483.301 255.957 482.974 255.82 482.574 255.82C482.174 255.82 481.844 255.957 481.584 256.23C481.331 256.497 481.204 256.857 481.204 257.31C481.204 257.763 481.331 258.127 481.584 258.4C481.844 258.667 482.174 258.8 482.574 258.8ZM491.847 257.33C491.847 257.35 491.837 257.49 491.817 257.75H487.747C487.821 258.083 487.994 258.347 488.267 258.54C488.541 258.733 488.881 258.83 489.287 258.83C489.567 258.83 489.814 258.79 490.027 258.71C490.247 258.623 490.451 258.49 490.637 258.31L491.467 259.21C490.961 259.79 490.221 260.08 489.247 260.08C488.641 260.08 488.104 259.963 487.637 259.73C487.171 259.49 486.811 259.16 486.557 258.74C486.304 258.32 486.177 257.843 486.177 257.31C486.177 256.783 486.301 256.31 486.547 255.89C486.801 255.463 487.144 255.133 487.577 254.9C488.017 254.66 488.507 254.54 489.047 254.54C489.574 254.54 490.051 254.653 490.477 254.88C490.904 255.107 491.237 255.433 491.477 255.86C491.724 256.28 491.847 256.77 491.847 257.33ZM489.057 255.72C488.704 255.72 488.407 255.82 488.167 256.02C487.927 256.22 487.781 256.493 487.727 256.84H490.377C490.324 256.5 490.177 256.23 489.937 256.03C489.697 255.823 489.404 255.72 489.057 255.72ZM496.153 254.99C496.667 254.99 497.117 255.097 497.503 255.31C497.89 255.517 498.187 255.81 498.393 256.19C498.607 256.57 498.713 257.01 498.713 257.51C498.713 258.023 498.587 258.48 498.333 258.88C498.087 259.273 497.74 259.58 497.293 259.8C496.847 260.013 496.34 260.12 495.773 260.12C494.833 260.12 494.093 259.82 493.553 259.22C493.02 258.613 492.753 257.727 492.753 256.56C492.753 255.48 492.987 254.62 493.453 253.98C493.927 253.333 494.65 252.91 495.623 252.71L498.183 252.2L498.393 253.54L496.133 253.99C495.52 254.11 495.063 254.31 494.763 254.59C494.47 254.87 494.297 255.267 494.243 255.78C494.477 255.527 494.757 255.333 495.083 255.2C495.41 255.06 495.767 254.99 496.153 254.99ZM495.783 258.91C496.183 258.91 496.503 258.78 496.743 258.52C496.99 258.26 497.113 257.93 497.113 257.53C497.113 257.123 496.99 256.8 496.743 256.56C496.503 256.32 496.183 256.2 495.783 256.2C495.377 256.2 495.05 256.32 494.803 256.56C494.557 256.8 494.433 257.123 494.433 257.53C494.433 257.937 494.56 258.27 494.813 258.53C495.067 258.783 495.39 258.91 495.783 258.91ZM505.015 254.62L502.585 260.33C502.339 260.95 502.032 261.387 501.665 261.64C501.305 261.893 500.869 262.02 500.355 262.02C500.075 262.02 499.799 261.977 499.525 261.89C499.252 261.803 499.029 261.683 498.855 261.53L499.425 260.42C499.545 260.527 499.682 260.61 499.835 260.67C499.995 260.73 500.152 260.76 500.305 260.76C500.519 260.76 500.692 260.707 500.825 260.6C500.959 260.5 501.079 260.33 501.185 260.09L501.205 260.04L498.875 254.62H500.485L501.995 258.27L503.515 254.62H505.015ZM510.851 257.33C510.851 257.35 510.841 257.49 510.821 257.75H506.751C506.825 258.083 506.998 258.347 507.271 258.54C507.545 258.733 507.885 258.83 508.291 258.83C508.571 258.83 508.818 258.79 509.031 258.71C509.251 258.623 509.455 258.49 509.641 258.31L510.471 259.21C509.965 259.79 509.225 260.08 508.251 260.08C507.645 260.08 507.108 259.963 506.641 259.73C506.175 259.49 505.815 259.16 505.561 258.74C505.308 258.32 505.181 257.843 505.181 257.31C505.181 256.783 505.305 256.31 505.551 255.89C505.805 255.463 506.148 255.133 506.581 254.9C507.021 254.66 507.511 254.54 508.051 254.54C508.578 254.54 509.055 254.653 509.481 254.88C509.908 255.107 510.241 255.433 510.481 255.86C510.728 256.28 510.851 256.77 510.851 257.33ZM508.061 255.72C507.708 255.72 507.411 255.82 507.171 256.02C506.931 256.22 506.785 256.493 506.731 256.84H509.381C509.328 256.5 509.181 256.23 508.941 256.03C508.701 255.823 508.408 255.72 508.061 255.72ZM517.297 260V256.78L515.687 259.48H515.027L513.457 256.77V260H512.047V254.62H513.677L515.397 257.73L517.227 254.62H518.687L518.707 260H517.297ZM523.031 256.34C523.731 256.347 524.261 256.503 524.621 256.81C524.981 257.117 525.161 257.557 525.161 258.13C525.161 258.73 524.958 259.193 524.551 259.52C524.145 259.847 523.568 260.01 522.821 260.01L520.201 260V254.62H521.751V256.34H523.031ZM525.741 254.62H527.291V260H525.741V254.62ZM522.681 258.9C522.981 258.907 523.211 258.843 523.371 258.71C523.531 258.577 523.611 258.377 523.611 258.11C523.611 257.85 523.531 257.66 523.371 257.54C523.218 257.42 522.988 257.357 522.681 257.35L521.751 257.34V258.9H522.681ZM528.795 254.62H530.345V257.82L532.965 254.62H534.395V260H532.845V256.8L530.235 260H528.795V254.62ZM531.495 254.04C530.322 254.04 529.732 253.523 529.725 252.49H530.745C530.752 252.723 530.815 252.907 530.935 253.04C531.062 253.167 531.245 253.23 531.485 253.23C531.725 253.23 531.908 253.167 532.035 253.04C532.168 252.907 532.235 252.723 532.235 252.49H533.275C533.268 253.523 532.675 254.04 531.495 254.04ZM480.998 266.54C481.498 266.54 481.952 266.657 482.358 266.89C482.772 267.117 483.095 267.44 483.328 267.86C483.562 268.273 483.678 268.757 483.678 269.31C483.678 269.863 483.562 270.35 483.328 270.77C483.095 271.183 482.772 271.507 482.358 271.74C481.952 271.967 481.498 272.08 480.998 272.08C480.312 272.08 479.772 271.863 479.378 271.43V273.94H477.818V266.62H479.308V267.24C479.695 266.773 480.258 266.54 480.998 266.54ZM480.728 270.8C481.128 270.8 481.455 270.667 481.708 270.4C481.968 270.127 482.098 269.763 482.098 269.31C482.098 268.857 481.968 268.497 481.708 268.23C481.455 267.957 481.128 267.82 480.728 267.82C480.328 267.82 479.998 267.957 479.738 268.23C479.485 268.497 479.358 268.857 479.358 269.31C479.358 269.763 479.485 270.127 479.738 270.4C479.998 270.667 480.328 270.8 480.728 270.8ZM490.002 269.33C490.002 269.35 489.992 269.49 489.972 269.75H485.902C485.975 270.083 486.148 270.347 486.422 270.54C486.695 270.733 487.035 270.83 487.442 270.83C487.722 270.83 487.968 270.79 488.182 270.71C488.402 270.623 488.605 270.49 488.792 270.31L489.622 271.21C489.115 271.79 488.375 272.08 487.402 272.08C486.795 272.08 486.258 271.963 485.792 271.73C485.325 271.49 484.965 271.16 484.712 270.74C484.458 270.32 484.332 269.843 484.332 269.31C484.332 268.783 484.455 268.31 484.702 267.89C484.955 267.463 485.298 267.133 485.732 266.9C486.172 266.66 486.662 266.54 487.202 266.54C487.728 266.54 488.205 266.653 488.632 266.88C489.058 267.107 489.392 267.433 489.632 267.86C489.878 268.28 490.002 268.77 490.002 269.33ZM487.212 267.72C486.858 267.72 486.562 267.82 486.322 268.02C486.082 268.22 485.935 268.493 485.882 268.84H488.532C488.478 268.5 488.332 268.23 488.092 268.03C487.852 267.823 487.558 267.72 487.212 267.72ZM494.619 269.2C494.939 269.3 495.186 269.453 495.359 269.66C495.539 269.867 495.629 270.113 495.629 270.4C495.629 270.74 495.512 271.04 495.279 271.3C495.046 271.553 494.726 271.75 494.319 271.89C493.912 272.03 493.452 272.1 492.939 272.1C492.519 272.1 492.106 272.057 491.699 271.97C491.292 271.883 490.916 271.753 490.569 271.58L490.989 270.49C491.556 270.763 492.182 270.9 492.869 270.9C493.236 270.9 493.522 270.847 493.729 270.74C493.942 270.627 494.049 270.47 494.049 270.27C494.049 270.097 493.976 269.967 493.829 269.88C493.682 269.787 493.469 269.74 493.189 269.74H492.089V268.77H493.049C493.322 268.77 493.532 268.727 493.679 268.64C493.826 268.553 493.899 268.427 493.899 268.26C493.899 268.087 493.806 267.953 493.619 267.86C493.439 267.767 493.179 267.72 492.839 267.72C492.319 267.72 491.752 267.843 491.139 268.09L490.759 267.01C491.506 266.683 492.232 266.52 492.939 266.52C493.426 266.52 493.859 266.58 494.239 266.7C494.626 266.82 494.929 266.997 495.149 267.23C495.369 267.457 495.479 267.723 495.479 268.03C495.479 268.283 495.402 268.513 495.249 268.72C495.096 268.92 494.886 269.08 494.619 269.2ZM502.154 266.62L499.724 272.33C499.477 272.95 499.171 273.387 498.804 273.64C498.444 273.893 498.007 274.02 497.494 274.02C497.214 274.02 496.937 273.977 496.664 273.89C496.391 273.803 496.167 273.683 495.994 273.53L496.564 272.42C496.684 272.527 496.821 272.61 496.974 272.67C497.134 272.73 497.291 272.76 497.444 272.76C497.657 272.76 497.831 272.707 497.964 272.6C498.097 272.5 498.217 272.33 498.324 272.09L498.344 272.04L496.014 266.62H497.624L499.134 270.27L500.654 266.62H502.154ZM507.686 266.62V272H506.126V267.9H504.426L504.376 268.85C504.349 269.557 504.282 270.143 504.176 270.61C504.069 271.077 503.896 271.443 503.656 271.71C503.416 271.977 503.082 272.11 502.656 272.11C502.429 272.11 502.159 272.07 501.846 271.99L501.926 270.71C502.032 270.723 502.109 270.73 502.156 270.73C502.389 270.73 502.562 270.647 502.676 270.48C502.796 270.307 502.876 270.09 502.916 269.83C502.956 269.563 502.986 269.213 503.006 268.78L503.086 266.62H507.686ZM512.096 268.34C512.796 268.347 513.332 268.507 513.706 268.82C514.079 269.127 514.266 269.563 514.266 270.13C514.266 270.723 514.056 271.187 513.636 271.52C513.222 271.847 512.639 272.01 511.886 272.01L509.186 272V266.62H510.736V268.34H512.096ZM511.746 270.9C512.046 270.907 512.276 270.843 512.436 270.71C512.596 270.577 512.676 270.377 512.676 270.11C512.676 269.85 512.596 269.66 512.436 269.54C512.282 269.42 512.052 269.357 511.746 269.35L510.736 269.34V270.9H511.746ZM519.272 267.9H517.452V272H515.902V267.9H514.082V266.62H519.272V267.9ZM522.194 266.54C523.027 266.54 523.667 266.74 524.114 267.14C524.56 267.533 524.784 268.13 524.784 268.93V272H523.324V271.33C523.03 271.83 522.484 272.08 521.684 272.08C521.27 272.08 520.91 272.01 520.604 271.87C520.304 271.73 520.074 271.537 519.914 271.29C519.754 271.043 519.674 270.763 519.674 270.45C519.674 269.95 519.86 269.557 520.234 269.27C520.614 268.983 521.197 268.84 521.984 268.84H523.224C523.224 268.5 523.12 268.24 522.914 268.06C522.707 267.873 522.397 267.78 521.984 267.78C521.697 267.78 521.414 267.827 521.134 267.92C520.86 268.007 520.627 268.127 520.434 268.28L519.874 267.19C520.167 266.983 520.517 266.823 520.924 266.71C521.337 266.597 521.76 266.54 522.194 266.54ZM522.074 271.03C522.34 271.03 522.577 270.97 522.784 270.85C522.99 270.723 523.137 270.54 523.224 270.3V269.75H522.154C521.514 269.75 521.194 269.96 521.194 270.38C521.194 270.58 521.27 270.74 521.424 270.86C521.584 270.973 521.8 271.03 522.074 271.03ZM530.659 267.9H528.839V272H527.289V267.9H525.469V266.62H530.659V267.9Z" fill="white"/>
<defs>
<linearGradient id="paint0_linear_234_9" x1="197.539" y1="93.7852" x2="252.422" y2="282.616" gradientUnits="userSpaceOnUse">
<stop stop-color="#FFE2E2"/>
<stop offset="1" stop-color="#FF9797"/>
</linearGradient>
<linearGradient id="paint1_linear_234_9" x1="139.565" y1="70.6651" x2="386.684" y2="169.719" gradientUnits="userSpaceOnUse">
<stop stop-color="#FF2C6B"/>
<stop offset="1" stop-color="#EC445A"/>
</linearGradient>
</defs>
</svg>
