<svg width="320" height="113" viewBox="0 0 320 113" fill="none" xmlns="http://www.w3.org/2000/svg">
<path d="M32.6479 24.4006H306.418" stroke="#E4E4E4"/>
<path d="M32.6479 53.2439H306.418" stroke="#E4E4E4"/>
<path d="M32.6479 82.0872H306.418" stroke="#E4E4E4"/>
<path d="M32.6479 110.93H306.418" stroke="#E4E4E4"/>
<path d="M199.5 57.5C209.5 57.5 220.419 56.0179 228 50.5C234.388 45.8509 237.013 42.0092 243.5 37.5C265.768 22.0213 310 17.5 310 17.5V111H33V95C33 95 55.3345 96.5872 69.5 95C78.1781 94.0276 83.1441 93.5363 91.5 91C98.7869 88.7882 101.964 84.595 109.5 83.5C117.481 82.3403 126.451 84.0048 134.5 83.5C142.961 82.9693 142.962 83.1958 151 80.5C160.043 77.4671 166.477 66.0929 175.5 63C188.403 58.5768 185.86 57.5 199.5 57.5Z" fill="url(#paint0_linear_2_4)" fill-opacity="0.5"/>
<path d="M247.087 37.5C247.087 57.6722 263.199 74 283.043 74C302.887 74 318.998 57.6722 318.998 37.5C318.998 17.3278 302.887 1 283.043 1C263.199 1 247.087 17.3278 247.087 37.5Z" fill="#EC445A" stroke="white" stroke-width="2"/>
<path d="M34.0009 111.002C26.8207 111.002 21 105.181 21 98.0009C21 90.8207 26.8207 85 34.0009 85C41.1811 85 47.0018 90.8207 47.0018 98.0009C47.0018 105.181 41.1811 111.002 34.0009 111.002Z" fill="#992397" stroke="white" stroke-width="2"/>
<path d="M253.787 28H255.397V32.56L258.737 28H260.257V35H258.657V30.45L255.317 35H253.787V28ZM267.91 33.72V36.16H266.46V35H262.68V36.16H261.23V33.72H261.45C261.783 33.7133 262.013 33.5167 262.14 33.13C262.267 32.7433 262.347 32.1933 262.38 31.48L262.45 29.62H267.14V33.72H267.91ZM263.79 31.59C263.77 32.1367 263.727 32.5833 263.66 32.93C263.6 33.2767 263.483 33.54 263.31 33.72H265.58V30.9H263.82L263.79 31.59ZM274.122 32.33C274.122 32.35 274.112 32.49 274.092 32.75H270.022C270.095 33.0833 270.268 33.3467 270.542 33.54C270.815 33.7333 271.155 33.83 271.562 33.83C271.842 33.83 272.088 33.79 272.302 33.71C272.522 33.6233 272.725 33.49 272.912 33.31L273.742 34.21C273.235 34.79 272.495 35.08 271.522 35.08C270.915 35.08 270.378 34.9633 269.912 34.73C269.445 34.49 269.085 34.16 268.832 33.74C268.578 33.32 268.452 32.8433 268.452 32.31C268.452 31.7833 268.575 31.31 268.822 30.89C269.075 30.4633 269.418 30.1333 269.852 29.9C270.292 29.66 270.782 29.54 271.322 29.54C271.848 29.54 272.325 29.6533 272.752 29.88C273.178 30.1067 273.512 30.4333 273.752 30.86C273.998 31.28 274.122 31.77 274.122 32.33ZM271.332 30.72C270.978 30.72 270.682 30.82 270.442 31.02C270.202 31.22 270.055 31.4933 270.002 31.84H272.652C272.598 31.5 272.452 31.23 272.212 31.03C271.972 30.8233 271.678 30.72 271.332 30.72ZM277.261 29.54C278.094 29.54 278.734 29.74 279.181 30.14C279.628 30.5333 279.851 31.13 279.851 31.93V35H278.391V34.33C278.098 34.83 277.551 35.08 276.751 35.08C276.338 35.08 275.978 35.01 275.671 34.87C275.371 34.73 275.141 34.5367 274.981 34.29C274.821 34.0433 274.741 33.7633 274.741 33.45C274.741 32.95 274.928 32.5567 275.301 32.27C275.681 31.9833 276.264 31.84 277.051 31.84H278.291C278.291 31.5 278.188 31.24 277.981 31.06C277.774 30.8733 277.464 30.78 277.051 30.78C276.764 30.78 276.481 30.8267 276.201 30.92C275.928 31.0067 275.694 31.1267 275.501 31.28L274.941 30.19C275.234 29.9833 275.584 29.8233 275.991 29.71C276.404 29.5967 276.828 29.54 277.261 29.54ZM277.141 34.03C277.408 34.03 277.644 33.97 277.851 33.85C278.058 33.7233 278.204 33.54 278.291 33.3V32.75H277.221C276.581 32.75 276.261 32.96 276.261 33.38C276.261 33.58 276.338 33.74 276.491 33.86C276.651 33.9733 276.868 34.03 277.141 34.03ZM286.366 29.62V35H284.806V30.9H283.106L283.056 31.85C283.029 32.5567 282.963 33.1433 282.856 33.61C282.749 34.0767 282.576 34.4433 282.336 34.71C282.096 34.9767 281.763 35.11 281.336 35.11C281.109 35.11 280.839 35.07 280.526 34.99L280.606 33.71C280.713 33.7233 280.789 33.73 280.836 33.73C281.069 33.73 281.243 33.6467 281.356 33.48C281.476 33.3067 281.556 33.09 281.596 32.83C281.636 32.5633 281.666 32.2133 281.686 31.78L281.766 29.62H286.366ZM290.776 31.34C291.476 31.3467 292.013 31.5067 292.386 31.82C292.76 32.1267 292.946 32.5633 292.946 33.13C292.946 33.7233 292.736 34.1867 292.316 34.52C291.903 34.8467 291.32 35.01 290.566 35.01L287.866 35V29.62H289.416V31.34H290.776ZM290.426 33.9C290.726 33.9067 290.956 33.8433 291.116 33.71C291.276 33.5767 291.356 33.3767 291.356 33.11C291.356 32.85 291.276 32.66 291.116 32.54C290.963 32.42 290.733 32.3567 290.426 32.35L289.416 32.34V33.9H290.426ZM293.921 29.62H295.471V31.72H297.811V29.62H299.371V35H297.811V32.99H295.471V35H293.921V29.62ZM303.384 35.08C302.818 35.08 302.308 34.9633 301.854 34.73C301.408 34.49 301.058 34.16 300.804 33.74C300.551 33.32 300.424 32.8433 300.424 32.31C300.424 31.7767 300.551 31.3 300.804 30.88C301.058 30.46 301.408 30.1333 301.854 29.9C302.308 29.66 302.818 29.54 303.384 29.54C303.951 29.54 304.458 29.66 304.904 29.9C305.351 30.1333 305.701 30.46 305.954 30.88C306.208 31.3 306.334 31.7767 306.334 32.31C306.334 32.8433 306.208 33.32 305.954 33.74C305.701 34.16 305.351 34.49 304.904 34.73C304.458 34.9633 303.951 35.08 303.384 35.08ZM303.384 33.8C303.784 33.8 304.111 33.6667 304.364 33.4C304.624 33.1267 304.754 32.7633 304.754 32.31C304.754 31.8567 304.624 31.4967 304.364 31.23C304.111 30.9567 303.784 30.82 303.384 30.82C302.984 30.82 302.654 30.9567 302.394 31.23C302.134 31.4967 302.004 31.8567 302.004 32.31C302.004 32.7633 302.134 33.1267 302.394 33.4C302.654 33.6667 302.984 33.8 303.384 33.8ZM312.637 32.33C312.637 32.35 312.627 32.49 312.607 32.75H308.537C308.611 33.0833 308.784 33.3467 309.057 33.54C309.331 33.7333 309.671 33.83 310.077 33.83C310.357 33.83 310.604 33.79 310.817 33.71C311.037 33.6233 311.241 33.49 311.427 33.31L312.257 34.21C311.751 34.79 311.011 35.08 310.037 35.08C309.431 35.08 308.894 34.9633 308.427 34.73C307.961 34.49 307.601 34.16 307.347 33.74C307.094 33.32 306.967 32.8433 306.967 32.31C306.967 31.7833 307.091 31.31 307.337 30.89C307.591 30.4633 307.934 30.1333 308.367 29.9C308.807 29.66 309.297 29.54 309.837 29.54C310.364 29.54 310.841 29.6533 311.267 29.88C311.694 30.1067 312.027 30.4333 312.267 30.86C312.514 31.28 312.637 31.77 312.637 32.33ZM309.847 30.72C309.494 30.72 309.197 30.82 308.957 31.02C308.717 31.22 308.571 31.4933 308.517 31.84H311.167C311.114 31.5 310.967 31.23 310.727 31.03C310.487 30.8233 310.194 30.72 309.847 30.72ZM275.916 42.9H274.096V47H272.546V42.9H270.726V41.62H275.916V42.9ZM281.753 44.33C281.753 44.35 281.743 44.49 281.723 44.75H277.653C277.727 45.0833 277.9 45.3467 278.173 45.54C278.447 45.7333 278.787 45.83 279.193 45.83C279.473 45.83 279.72 45.79 279.933 45.71C280.153 45.6233 280.357 45.49 280.543 45.31L281.373 46.21C280.867 46.79 280.127 47.08 279.153 47.08C278.547 47.08 278.01 46.9633 277.543 46.73C277.077 46.49 276.717 46.16 276.463 45.74C276.21 45.32 276.083 44.8433 276.083 44.31C276.083 43.7833 276.207 43.31 276.453 42.89C276.707 42.4633 277.05 42.1333 277.483 41.9C277.923 41.66 278.413 41.54 278.953 41.54C279.48 41.54 279.957 41.6533 280.383 41.88C280.81 42.1067 281.143 42.4333 281.383 42.86C281.63 43.28 281.753 43.77 281.753 44.33ZM278.963 42.72C278.61 42.72 278.313 42.82 278.073 43.02C277.833 43.22 277.687 43.4933 277.633 43.84H280.283C280.23 43.5 280.083 43.23 279.843 43.03C279.603 42.8233 279.31 42.72 278.963 42.72ZM288.06 41.62V47H286.5V42.9H284.8L284.75 43.85C284.724 44.5567 284.657 45.1433 284.55 45.61C284.444 46.0767 284.27 46.4433 284.03 46.71C283.79 46.9767 283.457 47.11 283.03 47.11C282.804 47.11 282.534 47.07 282.22 46.99L282.3 45.71C282.407 45.7233 282.484 45.73 282.53 45.73C282.764 45.73 282.937 45.6467 283.05 45.48C283.17 45.3067 283.25 45.09 283.29 44.83C283.33 44.5633 283.36 44.2133 283.38 43.78L283.46 41.62H288.06ZM292.081 47.08C291.514 47.08 291.004 46.9633 290.551 46.73C290.104 46.49 289.754 46.16 289.501 45.74C289.247 45.32 289.121 44.8433 289.121 44.31C289.121 43.7767 289.247 43.3 289.501 42.88C289.754 42.46 290.104 42.1333 290.551 41.9C291.004 41.66 291.514 41.54 292.081 41.54C292.647 41.54 293.154 41.66 293.601 41.9C294.047 42.1333 294.397 42.46 294.651 42.88C294.904 43.3 295.031 43.7767 295.031 44.31C295.031 44.8433 294.904 45.32 294.651 45.74C294.397 46.16 294.047 46.49 293.601 46.73C293.154 46.9633 292.647 47.08 292.081 47.08ZM292.081 45.8C292.481 45.8 292.807 45.6667 293.061 45.4C293.321 45.1267 293.451 44.7633 293.451 44.31C293.451 43.8567 293.321 43.4967 293.061 43.23C292.807 42.9567 292.481 42.82 292.081 42.82C291.681 42.82 291.351 42.9567 291.091 43.23C290.831 43.4967 290.701 43.8567 290.701 44.31C290.701 44.7633 290.831 45.1267 291.091 45.4C291.351 45.6667 291.681 45.8 292.081 45.8Z" fill="white"/>
<path d="M18.7366 81.12C18.0233 81.12 17.3766 80.9667 16.7966 80.66C16.2233 80.3467 15.77 79.9167 15.4366 79.37C15.11 78.8167 14.9466 78.1933 14.9466 77.5C14.9466 76.8067 15.11 76.1867 15.4366 75.64C15.77 75.0867 16.2233 74.6567 16.7966 74.35C17.3766 74.0367 18.0266 73.88 18.7466 73.88C19.3533 73.88 19.9 73.9867 20.3866 74.2C20.88 74.4133 21.2933 74.72 21.6266 75.12L20.5866 76.08C20.1133 75.5333 19.5266 75.26 18.8266 75.26C18.3933 75.26 18.0066 75.3567 17.6666 75.55C17.3266 75.7367 17.06 76 16.8666 76.34C16.68 76.68 16.5866 77.0667 16.5866 77.5C16.5866 77.9333 16.68 78.32 16.8666 78.66C17.06 79 17.3266 79.2667 17.6666 79.46C18.0066 79.6467 18.3933 79.74 18.8266 79.74C19.5266 79.74 20.1133 79.4633 20.5866 78.91L21.6266 79.87C21.2933 80.2767 20.88 80.5867 20.3866 80.8C19.8933 81.0133 19.3433 81.12 18.7366 81.12ZM27.607 78.33C27.607 78.35 27.597 78.49 27.577 78.75H23.507C23.5803 79.0833 23.7536 79.3467 24.027 79.54C24.3003 79.7333 24.6403 79.83 25.047 79.83C25.327 79.83 25.5736 79.79 25.787 79.71C26.007 79.6233 26.2103 79.49 26.397 79.31L27.227 80.21C26.7203 80.79 25.9803 81.08 25.007 81.08C24.4003 81.08 23.8636 80.9633 23.397 80.73C22.9303 80.49 22.5703 80.16 22.317 79.74C22.0636 79.32 21.937 78.8433 21.937 78.31C21.937 77.7833 22.0603 77.31 22.307 76.89C22.5603 76.4633 22.9036 76.1333 23.337 75.9C23.777 75.66 24.267 75.54 24.807 75.54C25.3336 75.54 25.8103 75.6533 26.237 75.88C26.6636 76.1067 26.997 76.4333 27.237 76.86C27.4836 77.28 27.607 77.77 27.607 78.33ZM24.817 76.72C24.4636 76.72 24.167 76.82 23.927 77.02C23.687 77.22 23.5403 77.4933 23.487 77.84H26.137C26.0836 77.5 25.937 77.23 25.697 77.03C25.457 76.8233 25.1636 76.72 24.817 76.72ZM28.8027 75.62H30.3527V78.82L32.9727 75.62H34.4027V81H32.8527V77.8L30.2427 81H28.8027V75.62ZM31.5027 75.04C30.3294 75.04 29.7394 74.5233 29.7327 73.49H30.7527C30.7594 73.7233 30.8227 73.9067 30.9427 74.04C31.0694 74.1667 31.2527 74.23 31.4927 74.23C31.7327 74.23 31.9161 74.1667 32.0427 74.04C32.1761 73.9067 32.2427 73.7233 32.2427 73.49H33.2827C33.2761 74.5233 32.6827 75.04 31.5027 75.04ZM40.7423 75.62V81H39.1823V79C38.729 79.2267 38.229 79.34 37.6823 79.34C36.9557 79.34 36.4057 79.1767 36.0323 78.85C35.6657 78.5167 35.4823 78.0033 35.4823 77.31V75.62H37.0423V77.21C37.0423 77.5367 37.1257 77.7733 37.2923 77.92C37.4657 78.0667 37.7123 78.14 38.0323 78.14C38.439 78.14 38.8223 78.0533 39.1823 77.88V75.62H40.7423ZM44.3302 75.54C45.1636 75.54 45.8036 75.74 46.2502 76.14C46.6969 76.5333 46.9202 77.13 46.9202 77.93V81H45.4602V80.33C45.1669 80.83 44.6202 81.08 43.8202 81.08C43.4069 81.08 43.0469 81.01 42.7402 80.87C42.4402 80.73 42.2102 80.5367 42.0502 80.29C41.8902 80.0433 41.8102 79.7633 41.8102 79.45C41.8102 78.95 41.9969 78.5567 42.3702 78.27C42.7502 77.9833 43.3336 77.84 44.1202 77.84H45.3602C45.3602 77.5 45.2569 77.24 45.0502 77.06C44.8436 76.8733 44.5336 76.78 44.1202 76.78C43.8336 76.78 43.5502 76.8267 43.2702 76.92C42.9969 77.0067 42.7636 77.1267 42.5702 77.28L42.0102 76.19C42.3036 75.9833 42.6536 75.8233 43.0602 75.71C43.4736 75.5967 43.8969 75.54 44.3302 75.54ZM44.2102 80.03C44.4769 80.03 44.7136 79.97 44.9202 79.85C45.1269 79.7233 45.2736 79.54 45.3602 79.3V78.75H44.2902C43.6502 78.75 43.3302 78.96 43.3302 79.38C43.3302 79.58 43.4069 79.74 43.5602 79.86C43.7202 79.9733 43.9369 80.03 44.2102 80.03ZM50.8354 81.08C50.2621 81.08 49.7454 80.9633 49.2854 80.73C48.8321 80.49 48.4754 80.16 48.2154 79.74C47.9621 79.32 47.8354 78.8433 47.8354 78.31C47.8354 77.7767 47.9621 77.3 48.2154 76.88C48.4754 76.46 48.8321 76.1333 49.2854 75.9C49.7454 75.66 50.2621 75.54 50.8354 75.54C51.4021 75.54 51.8954 75.66 52.3154 75.9C52.7421 76.1333 53.0521 76.47 53.2454 76.91L52.0354 77.56C51.7554 77.0667 51.3521 76.82 50.8254 76.82C50.4187 76.82 50.0821 76.9533 49.8154 77.22C49.5487 77.4867 49.4154 77.85 49.4154 78.31C49.4154 78.77 49.5487 79.1333 49.8154 79.4C50.0821 79.6667 50.4187 79.8 50.8254 79.8C51.3587 79.8 51.7621 79.5533 52.0354 79.06L53.2454 79.72C53.0521 80.1467 52.7421 80.48 52.3154 80.72C51.8954 80.96 51.4021 81.08 50.8354 81.08Z" fill="black"/>
<defs>
<linearGradient id="paint0_linear_2_4" x1="310" y1="100.5" x2="33" y2="103.5" gradientUnits="userSpaceOnUse">
<stop stop-color="#EC445A"/>
<stop offset="1" stop-color="#992397"/>
</linearGradient>
</defs>
</svg>
