<svg width="230" height="50" viewBox="0 0 230 50" fill="none" xmlns="http://www.w3.org/2000/svg">
<path fill-rule="evenodd" clip-rule="evenodd" d="M55 28C52.0458 28 49.6282 30.2445 48.6784 33.0419C45.3301 42.9038 35.9937 50 25 50C11.1929 50 0 38.8071 0 25C0 11.1929 11.1929 0 25 0C35.9938 0 45.3301 7.09623 48.6784 16.9581C49.6282 19.7555 52.0458 22 55 22C57.9542 22 60.3718 19.7555 61.3216 16.9581C64.6699 7.09623 74.0062 0 85 0C95.9938 0 105.33 7.09623 108.678 16.9581C109.628 19.7555 112.046 22 115 22C117.954 22 120.372 19.7555 121.322 16.9581C124.67 7.09623 134.006 0 145 0C155.994 0 165.33 7.09623 168.678 16.9581C169.628 19.7555 172.046 22 175 22C177.954 22 180.372 19.7555 181.322 16.9581C184.67 7.09623 194.006 0 205 0C218.807 0 230 11.1929 230 25C230 38.8071 218.807 50 205 50C194.006 50 184.67 42.9038 181.322 33.0419C180.372 30.2445 177.954 28 175 28C172.046 28 169.628 30.2445 168.678 33.0419C165.33 42.9038 155.994 50 145 50C134.006 50 124.67 42.9038 121.322 33.0419C120.372 30.2445 117.954 28 115 28C112.046 28 109.628 30.2445 108.678 33.0419C105.33 42.9038 95.9938 50 85 50C74.0062 50 64.6699 42.9038 61.3216 33.0419C60.3718 30.2445 57.9542 28 55 28Z" fill="#EC445A"/>
</svg>
