<svg width="966" height="811" viewBox="0 0 966 811" fill="none" xmlns="http://www.w3.org/2000/svg">
<path d="M0 104.36L25.7533 125.63V196.857L263.587 393.224L248.966 405.293L126.399 304.086L126.29 303.983H37.1028L0 273.357V275.037L36.7052 305.353L36.8317 305.456H126.019L247.954 406.146L235.087 416.768L119.097 321.014L118.989 320.911H16.6447L0 307.162V308.842L16.2291 322.229L16.3375 322.332H118.682L135.851 336.495H0V337.943H137.604L180.869 373.66L163.863 387.693H133.718L105.471 411.005C103.7 409.945 101.224 410.074 99.6335 411.393C97.8624 412.84 97.8624 415.217 99.6335 416.665C101.405 418.112 104.26 418.112 106.031 416.665C107.621 415.347 107.766 413.305 106.483 411.832L133.971 389.14H162.092L96.3804 443.414H35.6208L1.73496 415.424C3.0181 413.977 2.87352 411.909 1.28314 410.617C0.903623 410.307 0.469884 410.074 0.0180725 409.894V416.561C0.253014 416.458 0.506029 416.406 0.740971 416.277L35.2594 444.784L35.3678 444.887H96.6876L181.899 374.538L218.116 404.44H198.128L182.026 417.724C180.255 416.613 177.725 416.717 176.116 418.06C174.345 419.508 174.345 421.885 176.116 423.333C177.887 424.78 180.743 424.78 182.514 423.333C184.086 422.04 184.249 420.025 183.02 418.577L198.381 405.888H219.851L234.056 417.621L204.49 442.044L203.731 442.664L213.237 450.521L160.917 493.707H143.459L122.622 476.495C123.905 475.047 123.76 472.98 122.17 471.662C120.399 470.215 117.543 470.215 115.772 471.662C114.001 473.109 114.001 475.487 115.772 476.934C117.363 478.252 119.838 478.356 121.61 477.322L143.08 495.051L143.188 495.154H161.188L199.195 463.779V492.518L163.556 521.904C161.785 520.844 159.309 520.973 157.718 522.291C155.947 523.738 155.947 526.116 157.718 527.563C159.489 529.011 162.345 529.011 164.116 527.563C165.706 526.245 165.851 524.204 164.568 522.756L200.207 493.32V462.901L214.231 451.322L263.569 492.053L240.671 510.946H210.996L164.062 549.686H128.459L78.9405 508.8C80.2236 507.327 80.0791 505.286 78.4887 503.967C76.7176 502.52 73.8621 502.52 72.091 503.967C70.3199 505.415 70.3199 507.792 72.091 509.24C73.6814 510.558 76.1573 510.661 77.9284 509.627L128.061 551.03L128.17 551.134H164.315L211.249 512.393H238.9L101.441 625.928H4.28317L0 629.468V631.148L4.55426 627.375H101.694L264.599 492.88L283.087 508.154L118.628 643.941L118.375 644.148V725.3L62.097 771.768C60.3259 770.708 57.8499 770.838 56.2596 772.156C54.4885 773.603 54.4885 775.981 56.2596 777.428C58.0307 778.875 60.8861 778.875 62.6572 777.428C64.2476 776.11 64.3922 774.068 63.109 772.621L119.387 726.153V645.001L284.099 509.007L303.509 525.031L207.038 604.683L206.785 604.89V674.541L372.04 810.974H379.431C379.413 810.948 379.395 810.922 379.377 810.922C377.787 809.604 375.311 809.501 373.54 810.535L251.695 709.922H288.328L354.039 764.17C352.756 765.617 352.901 767.685 354.491 768.977C356.262 770.424 359.118 770.424 360.889 768.977C362.66 767.53 362.66 765.152 360.889 763.705C359.299 762.386 356.823 762.283 355.052 763.317L288.726 708.552L288.599 708.449H249.942L207.815 673.662V605.691L285.491 541.571V576.125L237.508 615.745V650.712C236.532 650.816 235.574 651.152 234.815 651.772C233.044 653.219 233.044 655.597 234.815 657.044C236.587 658.492 239.442 658.492 241.213 657.044C242.984 655.597 242.984 653.219 241.213 651.772C240.454 651.152 239.496 650.816 238.52 650.712V616.572L286.503 576.952V540.744L304.557 525.832L324.238 542.088L324.491 542.295L336.581 532.319V607.759L294.491 642.52C292.72 641.46 290.244 641.589 288.653 642.907C286.882 644.355 286.882 646.732 288.653 648.18C290.424 649.627 293.28 649.627 295.051 648.18C296.641 646.862 296.786 644.82 295.503 643.373L337.594 608.612V577.831L369.058 603.805V633.009L300.418 689.686C298.647 688.626 296.171 688.756 294.581 690.074C292.81 691.521 292.81 693.899 294.581 695.346C296.352 696.793 299.208 696.793 300.979 695.346C302.569 694.028 302.714 691.986 301.431 690.513L369.817 634.043L370.07 633.836V602.952L337.594 576.125V531.466L354.817 517.252L369.383 529.269V556.587L391.449 574.807C390.166 576.28 390.311 578.322 391.901 579.64C393.672 581.087 396.528 581.087 398.299 579.64C400.07 578.193 400.07 575.815 398.299 574.368C396.708 573.05 394.233 572.946 392.461 573.98L370.395 555.76V530.122L418.54 569.871V629.753L346.088 689.583L345.835 689.789V712.326L386.805 746.156C385.522 747.629 385.666 749.671 387.257 750.989C389.028 752.436 391.883 752.436 393.654 750.989C395.425 749.542 395.425 747.164 393.654 745.717C392.064 744.399 389.588 744.295 387.817 745.329L346.847 711.499V690.616L419.281 630.812L419.534 630.605V569.07L355.811 516.45L368.678 505.828L451.323 574.058V686.326L475.45 706.252V809.475L477.294 811H479.318L476.444 808.622V707.079L602.301 810.974H604.325L452.317 685.473V573.205L369.672 504.975L384.293 492.906L464.751 559.326L464.498 559.947L541.053 623.162V636.989L556.596 649.808V689.35L670.886 783.708C669.603 785.156 669.747 787.223 671.338 788.541C673.109 789.988 675.964 789.988 677.735 788.541C679.506 787.094 679.506 784.716 677.735 783.269C676.145 781.951 673.669 781.847 671.898 782.881L557.608 688.523V650.661L577.397 666.995C576.114 668.442 576.258 670.509 577.849 671.827C579.62 673.275 582.475 673.275 584.246 671.827C586.018 670.38 586.018 668.002 584.246 666.555C582.656 665.237 580.18 665.134 578.409 666.167L542.083 636.162V622.309L466.161 559.611H501.42L653.265 684.982V717.753L713.428 767.426C712.145 768.873 712.29 770.941 713.88 772.259C715.651 773.706 718.507 773.706 720.278 772.259C722.049 770.812 722.049 768.434 720.278 766.987C718.687 765.669 716.211 765.565 714.44 766.599L654.277 716.926V684.155L503.462 559.637H606.168L729.639 661.593L729.766 661.696H874.183L958.834 591.813C960.605 592.873 963.081 592.743 964.672 591.425C966.443 589.978 966.443 587.6 964.672 586.153C962.901 584.706 960.045 584.706 958.274 586.153C956.684 587.471 956.539 589.513 957.822 590.96L873.912 660.249H730.037L606.566 558.293L606.457 558.189H465.456L385.377 492.079L400.522 479.57L458.571 527.512L458.697 527.615H622.09L736.633 622.18C735.35 623.628 735.495 625.695 737.085 626.987C738.856 628.435 741.712 628.435 743.483 626.987C745.254 625.54 745.254 623.162 743.483 621.715C741.892 620.397 739.417 620.294 737.645 621.327L622.47 526.245L622.361 526.142H501.511L533.174 499.987H618.674C618.837 500.685 619.253 501.357 619.903 501.9C621.674 503.347 624.53 503.347 626.301 501.9C628.072 500.453 628.072 498.075 626.301 496.628C624.53 495.18 621.674 495.18 619.903 496.628C619.253 497.17 618.837 497.842 618.656 498.54H532.884L499.469 526.142H458.968L401.534 478.717L414.871 467.708L465.691 509.679L465.818 509.782H486.294L527.824 475.487H653.066L731.501 410.721C733.272 411.729 735.694 411.573 737.266 410.281C739.037 408.834 739.037 406.456 737.266 405.009C735.495 403.562 732.639 403.562 730.868 405.009C729.242 406.353 729.133 408.42 730.471 409.894L652.777 474.04H527.535L486.005 508.335H466.089L429.185 477.865H447.637L465.528 492.622L465.655 492.725H479.625L510.728 467.062C512.481 468.044 514.902 467.914 516.475 466.622C518.246 465.175 518.246 462.797 516.475 461.35C514.704 459.903 511.848 459.903 510.077 461.35C508.451 462.694 508.342 464.787 509.698 466.26L479.354 491.304H465.926L448.034 476.547L447.926 476.443H427.45L415.901 466.906L434.679 451.4H462.366L496.649 423.1C498.42 424.16 500.896 424.031 502.487 422.712C504.258 421.265 504.258 418.887 502.487 417.44C500.716 415.993 497.86 415.993 496.089 417.44C494.499 418.758 494.354 420.8 495.637 422.273L462.095 449.953H436.45L444.51 443.285L445.269 442.664L431.552 431.344L468.673 400.693H507.71L548.879 434.678C547.595 436.126 547.74 438.193 549.33 439.486C551.102 440.933 553.957 440.933 555.728 439.486C557.499 438.038 557.499 435.661 555.728 434.213C554.138 432.895 551.662 432.792 549.891 433.826L528.692 416.329H605.68L627.819 398.057H671.934C672.097 398.755 672.512 399.427 673.181 399.969C674.952 401.417 677.807 401.417 679.579 399.969C681.35 398.522 681.35 396.144 679.579 394.697C677.807 393.25 674.952 393.25 673.181 394.697C672.53 395.24 672.115 395.912 671.952 396.609H627.566L605.427 414.882H526.957L508.125 399.323L508.017 399.22H470.48L485.878 386.504H574.198L596.987 367.69H664.578L696.892 341.018C698.663 342.078 701.139 341.948 702.729 340.63C704.501 339.183 704.501 336.805 702.729 335.358C700.958 333.911 698.103 333.911 696.332 335.358C694.741 336.676 694.597 338.718 695.88 340.191L664.307 366.268H598.74L674.645 303.595H730.362L753.82 284.238C755.591 285.297 758.067 285.168 759.658 283.85C761.429 282.403 761.429 280.025 759.658 278.578C757.887 277.13 755.031 277.13 753.26 278.578C751.67 279.896 751.525 281.938 752.808 283.411L730.091 302.174H674.374L573.927 385.109H485.607L430.612 430.517L404.986 409.351L468.98 356.525H537.836L615.945 292.017C617.717 293.076 620.193 292.947 621.783 291.629C623.554 290.182 623.554 287.804 621.783 286.357C620.012 284.91 617.156 284.91 615.385 286.357C613.795 287.675 613.65 289.717 614.933 291.19L537.565 355.077H470.733L554.987 285.504L555.24 285.297V229.421L681.296 125.346C683.067 126.405 685.542 126.276 687.133 124.958C688.904 123.511 688.904 121.133 687.133 119.686C685.362 118.239 682.506 118.239 680.735 119.686C679.145 121.004 679 123.046 680.283 124.519L554.499 228.388L554.246 228.594V284.47L403.992 408.524L381.943 390.303L471.998 315.949L472.251 315.742V203.474L552.439 137.26C554.21 138.32 556.686 138.19 558.276 136.872C560.047 135.425 560.047 133.047 558.276 131.6C556.505 130.153 553.65 130.153 551.879 131.6C550.288 132.918 550.144 134.96 551.427 136.433L471.492 202.44L471.239 202.647V314.915L380.931 389.476L367.323 378.234L434.245 322.979V191.404L466.414 164.836V115.344L494.824 91.903C496.595 92.9626 499.071 92.8334 500.661 91.5153C502.432 90.068 502.432 87.6903 500.661 86.2431C498.89 84.7958 496.035 84.7958 494.264 86.2431C492.673 87.5611 492.529 89.6028 493.812 91.076L465.402 114.517V164.009L433.233 190.577V322.152L366.311 377.407L347.949 362.236L398.968 319.929V100.096H397.956V228.853L372.293 207.66V135.477C373.269 135.373 374.226 135.037 374.985 134.417C376.757 132.97 376.757 130.592 374.985 129.145C373.214 127.698 370.359 127.698 368.588 129.145C366.817 130.592 366.817 132.97 368.588 134.417C369.347 135.037 370.305 135.373 371.281 135.477V208.513L397.974 230.533V269.351L364.196 241.465C365.371 240.018 365.19 238.028 363.636 236.735C361.865 235.288 359.009 235.288 357.238 236.735C355.467 238.183 355.467 240.56 357.238 242.008C358.865 243.352 361.431 243.429 363.202 242.292L397.974 271.005V319.05L346.774 361.332L330.419 347.841L355.305 327.295V297.031L349.015 291.836V276.407L304.159 239.372V213.217L267.653 183.082C268.936 181.609 268.792 179.567 267.201 178.249C265.43 176.802 262.575 176.802 260.804 178.249C259.033 179.697 259.033 182.074 260.804 183.522C262.394 184.84 264.87 184.943 266.641 183.909L303.147 214.044V240.199L348.003 277.234V290.983L272.623 228.75C273.798 227.302 273.617 225.312 272.063 224.02C270.292 222.573 267.436 222.573 265.665 224.02C263.894 225.467 263.894 227.845 265.665 229.292C267.292 230.636 269.858 230.74 271.629 229.577L332.063 279.482H301.738L266.966 250.769C268.249 249.322 268.105 247.254 266.515 245.936C264.743 244.489 261.888 244.489 260.117 245.936C258.346 247.383 258.346 249.761 260.117 251.208C261.707 252.526 264.183 252.63 265.954 251.596L301.467 280.93H333.726V280.852L354.292 297.832V326.416L329.407 346.962L324.726 343.086L324.473 342.879L318.057 348.177L213.58 261.908L213.472 261.805H184.972C184.809 261.107 184.393 260.435 183.725 259.892C181.954 258.445 179.098 258.445 177.327 259.892C175.556 261.339 175.556 263.717 177.327 265.164C179.098 266.612 181.954 266.612 183.725 265.164C184.375 264.622 184.791 263.95 184.972 263.252H213.201L317.045 349.004L301.159 362.107L214.339 290.414C215.622 288.967 215.478 286.9 213.888 285.582C212.116 284.134 209.261 284.134 207.49 285.582C205.719 287.029 205.719 289.407 207.49 290.854C209.08 292.172 211.556 292.275 213.327 291.241L300.147 362.934L283.701 376.503L161.026 275.218V190.422L218.894 142.636V142.662H272.153L314.334 107.823C316.105 108.883 318.581 108.754 320.172 107.436C321.943 105.988 321.943 103.611 320.172 102.163C318.401 100.716 315.545 100.716 313.774 102.163C312.184 103.481 312.039 105.523 313.322 106.996L271.882 141.214H220.629L290.948 83.1417L291.202 82.935V7.41738C292.177 7.314 293.135 6.97801 293.894 6.35775C295.665 4.91045 295.665 2.53276 293.894 1.08547C292.123 -0.361823 289.268 -0.361823 287.497 1.08547C285.726 2.53276 285.726 4.91045 287.497 6.35775C288.256 6.97801 289.214 7.314 290.189 7.41738V82.1079L173.279 178.637L101.332 119.376V52.5935L50.2414 10.4153C51.5246 8.96804 51.38 6.90049 49.7896 5.58242C48.0185 4.13513 45.1631 4.13513 43.392 5.58242C41.6209 7.02971 41.6209 9.40741 43.392 10.8547C44.9823 12.1728 47.4583 12.2761 49.2294 11.2424L100.32 53.4206V120.203L172.231 179.593L160.248 189.492L159.995 189.699V256.377L139.266 239.268V197.633L97.0852 162.794C98.3684 161.347 98.2238 159.28 96.6334 157.962C94.8623 156.514 92.0069 156.514 90.2358 157.962C88.4647 159.409 88.4647 161.786 90.2358 163.234C91.8262 164.552 94.3021 164.655 96.0732 163.621L138.236 198.46V240.095L159.977 258.057V276.174L282.653 377.459L264.581 392.371L26.7472 196.005V124.777L0 102.68V104.36ZM324.455 344.636L443.155 442.639L324.455 540.641L205.737 442.639L324.455 344.636Z" fill="url(#paint0_linear)"/>
<defs>
<linearGradient id="paint0_linear" x1="483" y1="0" x2="483" y2="811" gradientUnits="userSpaceOnUse">
<stop stop-color="#7457DB"/>
<stop offset="1" stop-color="white" stop-opacity="0"/>
</linearGradient>
</defs>
</svg>
